HIERARCHY
ROOT hip
{
  OFFSET 0 90.174 2.4664
  CHANNELS 6 Xposition Yposition Zposition Zrotation Xrotation Yrotation
  JOINT abdomen
  {
    OFFSET 0 -1.186 -1.5018
    CHANNELS 6 Xposition Yposition Zposition Zrotation Xrotation Yrotation
    JOINT abdomen2
    {
      OFFSET 0 9.964 0.2134
      CHANNELS 6 Xposition Yposition Zposition Zrotation Xrotation Yrotation
      JOINT chest
      {
        OFFSET 0 13.134 -3.2573
        CHANNELS 6 Xposition Yposition Zposition Zrotation Xrotation Yrotation
        JOINT neck
        {
          OFFSET 0 20.686 -1.6905
          CHANNELS 6 Xposition Yposition Zposition Zrotation Xrotation Yrotation
          JOINT head
          {
            OFFSET 0 7.238 -0.1237
            CHANNELS 6 Xposition Yposition Zposition Zrotation Xrotation Yrotation
            End Site
            {
              OFFSET 0 0 0
            }
          }
        }
        JOINT lCollar
        {
          OFFSET 1.7069 20.075 5.0056
          CHANNELS 6 Xposition Yposition Zposition Zrotation Xrotation Yrotation
          JOINT lShldr
          {
            OFFSET 13.6458 -0.047 -4.849
            CHANNELS 6 Xposition Yposition Zposition Zrotation Xrotation Yrotation
            JOINT lForeArm
            {
              OFFSET 28.3255 -0.9759 2.2888
              CHANNELS 6 Xposition Yposition Zposition Zrotation Xrotation Yrotation
              JOINT lHand
              {
                OFFSET 22.1583 -0.53 10.8316
                CHANNELS 6 Xposition Yposition Zposition Zrotation Xrotation Yrotation
                JOINT lThumb1
                {
                  OFFSET 0.786 0.112 2.5817
                  CHANNELS 6 Xposition Yposition Zposition Zrotation Xrotation Yrotation
                  JOINT lThumb2
                  {
                    OFFSET 0.3601 -0.878 4.2331
                    CHANNELS 6 Xposition Yposition Zposition Zrotation Xrotation Yrotation
                    JOINT lThumb2_End
                    {
                      OFFSET 1.8127 -1.216 2.2227
                      CHANNELS 6 Xposition Yposition Zposition Zrotation Xrotation Yrotation
                      End Site
                      {
                        OFFSET 0.0181 -0.0122 0.0222
                      }
                    }
                  }
                }
                JOINT lCarpal1
                {
                  OFFSET 0.9571 1.114 1.7695
                  CHANNELS 6 Xposition Yposition Zposition Zrotation Xrotation Yrotation
                  JOINT lIndex1
                  {
                    OFFSET 4.1246 0.487 4.1451
                    CHANNELS 6 Xposition Yposition Zposition Zrotation Xrotation Yrotation
                    JOINT lIndex2
                    {
                      OFFSET 3.4052 -1.454 2.7682
                      CHANNELS 6 Xposition Yposition Zposition Zrotation Xrotation Yrotation
                      JOINT lIndex2_End
                      {
                        OFFSET 1.4531 -1.795 1.2713
                        CHANNELS 6 Xposition Yposition Zposition Zrotation Xrotation Yrotation
                        End Site
                        {
                          OFFSET 0.0145 -0.0179 0.0127
                        }
                      }
                    }
                  }
                  JOINT lMid1
                  {
                    OFFSET 5.6954 0.21 2.1184
                    CHANNELS 6 Xposition Yposition Zposition Zrotation Xrotation Yrotation
                    JOINT lMid2
                    {
                      OFFSET 3.9766 -1.54 2.3863
                      CHANNELS 6 Xposition Yposition Zposition Zrotation Xrotation Yrotation
                      JOINT lMid2_End
                      {
                        OFFSET 1.4042 -1.926 1.125
                        CHANNELS 6 Xposition Yposition Zposition Zrotation Xrotation Yrotation
                        End Site
                        {
                          OFFSET 0.014 -0.0193 0.0113
                        }
                      }
                    }
                  }
                }
                JOINT lCarpal2
                {
                  OFFSET 2.0956 0.66 -0.3894
                  CHANNELS 6 Xposition Yposition Zposition Zrotation Xrotation Yrotation
                  JOINT lRing1
                  {
                    OFFSET 5.0395 -0.09 2.4971
                    CHANNELS 6 Xposition Yposition Zposition Zrotation Xrotation Yrotation
                    JOINT lRing2
                    {
                      OFFSET 3.7921 -1.552 1.4806
                      CHANNELS 6 Xposition Yposition Zposition Zrotation Xrotation Yrotation
                      JOINT lRing2_End
                      {
                        OFFSET 1.4655 -1.808 0.9609
                        CHANNELS 6 Xposition Yposition Zposition Zrotation Xrotation Yrotation
                        End Site
                        {
                          OFFSET 0.0147 -0.0181 0.0096
                        }
                      }
                    }
                  }
                  JOINT lPinky1
                  {
                    OFFSET 4.9141 -1.269 0.3591
                    CHANNELS 6 Xposition Yposition Zposition Zrotation Xrotation Yrotation
                    JOINT lPinky2
                    {
                      OFFSET 3.1477 -1.685 0.8462
                      CHANNELS 6 Xposition Yposition Zposition Zrotation Xrotation Yrotation
                      JOINT lPinky2_End
                      {
                        OFFSET 0.8055 -1.585 0.7955
                        CHANNELS 6 Xposition Yposition Zposition Zrotation Xrotation Yrotation
                        End Site
                        {
                          OFFSET 0.0081 -0.0158 0.008
                        }
                      }
                    }
                  }
                }
              }
            }
          }
        }
        JOINT rCollar
        {
          OFFSET -1.7069 20.075 5.0056
          CHANNELS 6 Xposition Yposition Zposition Zrotation Xrotation Yrotation
          JOINT rShldr
          {
            OFFSET -13.6458 -0.047 -4.849
            CHANNELS 6 Xposition Yposition Zposition Zrotation Xrotation Yrotation
            JOINT rForeArm
            {
              OFFSET -28.3255 -0.9759 2.2888
              CHANNELS 6 Xposition Yposition Zposition Zrotation Xrotation Yrotation
              JOINT rHand
              {
                OFFSET -22.1583 -0.53 10.8316
                CHANNELS 6 Xposition Yposition Zposition Zrotation Xrotation Yrotation
                JOINT rThumb1
                {
                  OFFSET -0.786 0.112 2.5817
                  CHANNELS 6 Xposition Yposition Zposition Zrotation Xrotation Yrotation
                  JOINT rThumb2
                  {
                    OFFSET -0.3601 -0.878 4.2331
                    CHANNELS 6 Xposition Yposition Zposition Zrotation Xrotation Yrotation
                    JOINT rThumb2_End
                    {
                      OFFSET -1.8127 -1.216 2.2227
                      CHANNELS 6 Xposition Yposition Zposition Zrotation Xrotation Yrotation
                      End Site
                      {
                        OFFSET -0.0181 -0.0122 0.0222
                      }
                    }
                  }
                }
                JOINT rCarpal1
                {
                  OFFSET -0.9571 1.114 1.7695
                  CHANNELS 6 Xposition Yposition Zposition Zrotation Xrotation Yrotation
                  JOINT rIndex1
                  {
                    OFFSET -4.1246 0.487 4.1451
                    CHANNELS 6 Xposition Yposition Zposition Zrotation Xrotation Yrotation
                    JOINT rIndex2
                    {
                      OFFSET -3.4052 -1.454 2.7682
                      CHANNELS 6 Xposition Yposition Zposition Zrotation Xrotation Yrotation
                      JOINT rIndex2_End
                      {
                        OFFSET -1.4531 -1.795 1.2713
                        CHANNELS 6 Xposition Yposition Zposition Zrotation Xrotation Yrotation
                        End Site
                        {
                          OFFSET -0.0145 -0.018 0.0127
                        }
                      }
                    }
                  }
                  JOINT rMid1
                  {
                    OFFSET -5.6954 0.21 2.1184
                    CHANNELS 6 Xposition Yposition Zposition Zrotation Xrotation Yrotation
                    JOINT rMid2
                    {
                      OFFSET -3.9766 -1.54 2.3863
                      CHANNELS 6 Xposition Yposition Zposition Zrotation Xrotation Yrotation
                      JOINT rMid2_End
                      {
                        OFFSET -1.4042 -1.926 1.125
                        CHANNELS 6 Xposition Yposition Zposition Zrotation Xrotation Yrotation
                        End Site
                        {
                          OFFSET -0.014 -0.0193 0.0113
                        }
                      }
                    }
                  }
                }
                JOINT rCarpal2
                {
                  OFFSET -2.0956 0.66 -0.3894
                  CHANNELS 6 Xposition Yposition Zposition Zrotation Xrotation Yrotation
                  JOINT rRing1
                  {
                    OFFSET -5.0395 -0.09 2.4971
                    CHANNELS 6 Xposition Yposition Zposition Zrotation Xrotation Yrotation
                    JOINT rRing2
                    {
                      OFFSET -3.7921 -1.552 1.4806
                      CHANNELS 6 Xposition Yposition Zposition Zrotation Xrotation Yrotation
                      JOINT rRing2_End
                      {
                        OFFSET -1.4655 -1.808 0.9609
                        CHANNELS 6 Xposition Yposition Zposition Zrotation Xrotation Yrotation
                        End Site
                        {
                          OFFSET -0.0147 -0.0181 0.0096
                        }
                      }
                    }
                  }
                  JOINT rPinky1
                  {
                    OFFSET -4.9141 -1.269 0.3592
                    CHANNELS 6 Xposition Yposition Zposition Zrotation Xrotation Yrotation
                    JOINT rPinky2
                    {
                      OFFSET -3.1477 -1.685 0.8462
                      CHANNELS 6 Xposition Yposition Zposition Zrotation Xrotation Yrotation
                      JOINT rPinky2_End
                      {
                        OFFSET -0.8055 -1.585 0.7955
                        CHANNELS 6 Xposition Yposition Zposition Zrotation Xrotation Yrotation
                        End Site
                        {
                          OFFSET -0.0081 -0.0158 0.008
                        }
                      }
                    }
                  }
                }
              }
            }
          }
        }
      }
    }
  }
  JOINT lThigh
  {
    OFFSET 8.367 -8.2066 0.5982
    CHANNELS 6 Xposition Yposition Zposition Zrotation Xrotation Yrotation
    JOINT lShin
    {
      OFFSET 2.1923 -43.463 -0.4932
      CHANNELS 6 Xposition Yposition Zposition Zrotation Xrotation Yrotation
      JOINT lFoot
      {
        OFFSET 0.7333 -45.8593 -2.6451
        CHANNELS 6 Xposition Yposition Zposition Zrotation Xrotation Yrotation
        End Site
        {
          OFFSET 2.6618 -4.2699 12.3931
        }
      }
    }
  }
  JOINT rThigh
  {
    OFFSET -8.367 -8.2066 0.5982
    CHANNELS 6 Xposition Yposition Zposition Zrotation Xrotation Yrotation
    JOINT rShin
    {
      OFFSET -2.1923 -43.463 -0.4931
      CHANNELS 6 Xposition Yposition Zposition Zrotation Xrotation Yrotation
      JOINT rFoot
      {
        OFFSET -0.7333 -45.8593 -2.6451
        CHANNELS 6 Xposition Yposition Zposition Zrotation Xrotation Yrotation
        End Site
        {
          OFFSET -2.6618 -4.2699 12.3931
        }
      }
    }
  }
}
MOTION
Frames:	4
Frame Time:	0.0333333
0 90.174 2.4664 0 0 -0 0 -1.186 -1.5018 0 0 -0 0 9.964 0.2134 0 0 -0 0 13.134 -3.2573 0 0 -0 0 20.686 -1.6905 0 0 -0 0 7.238 -0.1237 0 0 -0 1.7069 20.075 5.0056 0 0 -0 13.6458 -0.047 -4.849 1.66051 0.0835086 5.75766 28.3255 -0.9759 2.2888 -0.0175111 0.895433 15.7816 22.1583 -0.53 10.8316 7.95139e-016 -1.98785e-016 -0 0.786 0.112 2.5817 5.46658e-016 -3.97569e-016 -0 0.3601 -0.878 4.2331 5.96354e-016 0 -0 1.8127 -1.216 2.2227 3.97569e-016 1.98785e-016 9.54166e-015 0.9571 1.114 1.7695 1.49089e-016 -3.97569e-016 -0 4.1246 0.487 4.1451 6.4605e-016 0 3.18055e-015 3.4052 -1.454 2.7682 5.96354e-016 0 3.18055e-015 1.4531 -1.795 1.2713 8.94531e-016 -1.98785e-016 6.36111e-015 5.6954 0.21 2.1184 6.4605e-016 0 3.18055e-015 3.9766 -1.54 2.3863 5.96354e-016 0 3.18055e-015 1.4042 -1.926 1.125 8.94531e-016 -1.98785e-016 6.36111e-015 2.0956 0.66 -0.3894 1.49089e-016 -3.97569e-016 -0 5.0395 -0.09 2.4971 6.4605e-016 0 3.18055e-015 3.7921 -1.552 1.4806 5.96354e-016 0 3.18055e-015 1.4655 -1.808 0.9609 8.94531e-016 -1.98785e-016 6.36111e-015 4.9141 -1.269 0.3591 6.4605e-016 0 3.18055e-015 3.1477 -1.685 0.8462 5.96354e-016 0 3.18055e-015 0.8055 -1.585 0.7955 8.94531e-016 -1.98785e-016 6.36111e-015 -1.7069 20.075 5.0056 0 0 -0 -13.6458 -0.047 -4.849 -1.4496 0.0636048 -5.0245 -28.3255 -0.9759 2.2888 -1.74811 1.20616 -16.8394 -22.1583 -0.53 10.8316 -1.19271e-015 1.98785e-016 -3.18055e-015 -0.786 0.112 2.5817 -3.97569e-016 1.98785e-016 -3.18055e-015 -0.3601 -0.878 4.2331 -2.98177e-016 1.98785e-016 -3.18055e-015 -1.8127 -1.216 2.2227 -2.98177e-016 3.97569e-016 -0 -0.9571 1.114 1.7695 4.96962e-016 0 -6.36111e-015 -4.1246 0.487 4.1451 -9.93923e-017 3.97569e-016 -0 -3.4052 -1.454 2.7682 -8.94531e-016 5.96354e-016 -0 -1.4531 -1.795 1.2713 -3.97569e-016 3.97569e-016 -0 -5.6954 0.21 2.1184 -9.93923e-017 3.97569e-016 -0 -3.9766 -1.54 2.3863 -8.94531e-016 5.96354e-016 -0 -1.4042 -1.926 1.125 -3.97569e-016 3.97569e-016 -0 -2.0956 0.66 -0.3894 4.96962e-016 0 -6.36111e-015 -5.0395 -0.09 2.4971 -9.93923e-017 3.97569e-016 -0 -3.7921 -1.552 1.4806 -8.94531e-016 5.96354e-016 -0 -1.4655 -1.808 0.9609 -3.97569e-016 3.97569e-016 -0 -4.9141 -1.269 0.3592 -9.93923e-017 3.97569e-016 -0 -3.1477 -1.685 0.8462 -8.94531e-016 5.96354e-016 -0 -0.8055 -1.585 0.7955 -3.97569e-016 3.97569e-016 -0 8.367 -8.2066 0.5982 -4.66115 -1.03232 0.120763 2.1923 -43.463 -0.4932 0.00990601 1.55097 0.177175 0.7333 -45.8593 -2.6451 4.65196 -0.54114 -0.255042 -8.367 -8.2066 0.5982 4.66115 -1.03222 -0.120763 -2.1923 -43.463 -0.4931 -0.00990459 1.5509 -0.177176 -0.7333 -45.8593 -2.6451 -4.65196 -0.541171 0.255041 
4.16269 47.8383 -16.8707 -9.29659e-015 -18.0001 180 0 -1.186 -1.5018 -0.240147 6.53656 -0.160445 8.88178e-016 9.964 0.2134 -0.466331 13.0738 -0.296021 0 13.134 -3.2573 -0.466331 13.0738 -0.296021 -8.88178e-016 20.686 -1.6905 -3.03285e-007 -0.571725 -3.18658e-007 0 7.238 -0.1237 -1.36188e-008 -0.645223 2.68336e-007 1.7069 20.075 5.0056 8.91195 -7.69473 6.21542 13.6458 -0.047 -4.849 -73.9624 6.25861 -17.4937 28.3255 -0.9759 2.2888 -16.2313 11.4823 -39.9331 22.1583 -0.53 10.8316 1.08551 2.12028 -8.78379 0.786 0.112 2.5817 2.38542e-015 3.18055e-015 -0 0.3601 -0.878 4.2331 2.38542e-015 0 -0 1.8127 -1.216 2.2227 3.18055e-015 0 3.18055e-015 0.9571 1.114 1.7695 7.95139e-016 3.18055e-015 -0 4.1246 0.487 4.1451 2.38542e-015 3.18055e-015 3.18055e-015 3.4052 -1.454 2.7682 2.38542e-015 3.18055e-015 3.18055e-015 1.4531 -1.795 1.2713 7.95139e-016 -3.18055e-015 -0 5.6954 0.21 2.1184 2.38542e-015 3.18055e-015 3.18055e-015 3.9766 -1.54 2.3863 2.38542e-015 3.18055e-015 3.18055e-015 1.4042 -1.926 1.125 7.95139e-016 -3.18055e-015 -0 2.0956 0.66 -0.3894 7.95139e-016 3.18055e-015 -0 5.0395 -0.09 2.4971 2.38542e-015 3.18055e-015 3.18055e-015 3.7921 -1.552 1.4806 2.38542e-015 3.18055e-015 3.18055e-015 1.4655 -1.808 0.9609 7.95139e-016 -3.18055e-015 -0 4.9141 -1.269 0.3591 2.38542e-015 3.18055e-015 3.18055e-015 3.1477 -1.685 0.8462 2.38542e-015 3.18055e-015 3.18055e-015 0.8055 -1.585 0.7955 7.95139e-016 -3.18055e-015 -0 -1.7069 20.075 5.0056 -0.475027 -10.7902 4.36642 -13.6458 -0.047 -4.849 68.3048 3.11948 3.0531 -28.3255 -0.9759 2.2888 14.304 15.6198 48.423 -22.1583 -0.53 10.8316 -5.80958 1.6957 4.77238 -0.786 0.112 2.5817 0 0 -1.59028e-015 -0.3601 -0.878 4.2331 0 0 -1.59028e-015 -1.8127 -1.216 2.2227 7.95139e-016 -3.18055e-015 -4.77083e-015 -0.9571 1.114 1.7695 -7.95139e-016 -3.18055e-015 -0 -4.1246 0.487 4.1451 -6.36111e-015 0 6.36111e-015 -3.4052 -1.454 2.7682 -7.95139e-016 -3.18055e-015 -0 -1.4531 -1.795 1.2713 -5.29669e-031 -9.54166e-015 -3.18055e-015 -5.6954 0.21 2.1184 -6.36111e-015 0 6.36111e-015 -3.9766 -1.54 2.3863 -7.95139e-016 -3.18055e-015 -0 -1.4042 -1.926 1.125 -5.29669e-031 -9.54166e-015 -3.18055e-015 -2.0956 0.66 -0.3894 -7.95139e-016 -3.18055e-015 -0 -5.0395 -0.09 2.4971 -6.36111e-015 0 6.36111e-015 -3.7921 -1.552 1.4806 -7.95139e-016 -3.18055e-015 -0 -1.4655 -1.808 0.9609 -5.29669e-031 -9.54166e-015 -3.18055e-015 -4.9141 -1.269 0.3592 -6.36111e-015 0 6.36111e-015 -3.1477 -1.685 0.8462 -7.95139e-016 -3.18055e-015 -0 -0.8055 -1.585 0.7955 -5.29669e-031 -9.54166e-015 -3.18055e-015 8.367 -8.2066 0.5982 107.819 -43.3614 117.794 2.1923 -43.463 -0.4932 31.5119 78.4515 -18.7455 0.7333 -45.8593 -2.6451 -19.9802 18.4252 10.6663 -8.367 -8.2066 0.5982 -24.8935 -15.6744 -10.1775 -2.1923 -43.463 -0.4931 -44.8031 82.4627 36.953 -0.7333 -45.8593 -2.6451 4.71371 42.7554 -0.27739 
4.18671 47.8491 -16.2013 -9.29611e-015 -17.9965 180 0 -1.186 -1.5018 -0.240004 6.65942 -0.160631 0 9.964 0.2134 -0.465834 13.3194 -0.295986 0 13.134 -3.2573 -0.465834 13.3194 -0.295986 0 20.686 -1.6905 -3.59836e-007 -1.14307 2.08111e-007 0 7.238 -0.1237 -3.30459e-010 -1.28761 -3.07072e-008 1.7069 20.075 5.0056 9.18669 -9.20107 6.26757 13.6458 -0.047 -4.849 -73.9624 6.25859 -17.4938 28.3255 -0.9759 2.2888 -16.2314 11.4823 -39.9331 22.1583 -0.53 10.8316 0.690575 1.70268 -7.97936 0.786 0.112 2.5817 1.59028e-015 -6.36111e-015 -3.18055e-015 0.3601 -0.878 4.2331 -7.95139e-016 -1.27222e-014 -3.18055e-015 1.8127 -1.216 2.2227 -7.95139e-016 -6.36111e-015 -0 0.9571 1.114 1.7695 2.38542e-015 3.18055e-015 -0 4.1246 0.487 4.1451 1.76556e-031 -3.18055e-015 3.18055e-015 3.4052 -1.454 2.7682 7.95139e-016 -3.18055e-015 -6.36111e-015 1.4531 -1.795 1.2713 -7.95139e-016 -6.36111e-015 -6.36111e-015 5.6954 0.21 2.1184 1.76556e-031 -3.18055e-015 3.18055e-015 3.9766 -1.54 2.3863 7.95139e-016 -3.18055e-015 -6.36111e-015 1.4042 -1.926 1.125 -7.95139e-016 -6.36111e-015 -6.36111e-015 2.0956 0.66 -0.3894 2.38542e-015 3.18055e-015 -0 5.0395 -0.09 2.4971 1.76556e-031 -3.18055e-015 3.18055e-015 3.7921 -1.552 1.4806 7.95139e-016 -3.18055e-015 -6.36111e-015 1.4655 -1.808 0.9609 -7.95139e-016 -6.36111e-015 -6.36111e-015 4.9141 -1.269 0.3591 1.76556e-031 -3.18055e-015 3.18055e-015 3.1477 -1.685 0.8462 7.95139e-016 -3.18055e-015 -6.36111e-015 0.8055 -1.585 0.7955 -7.95139e-016 -6.36111e-015 -6.36111e-015 -1.7069 20.075 5.0056 -0.750641 -12.2547 4.40847 -13.6458 -0.047 -4.849 68.3048 3.11946 3.05311 -28.3255 -0.9759 2.2888 14.3041 15.6198 48.423 -22.1583 -0.53 10.8316 -5.49478 1.243 3.74113 -0.786 0.112 2.5817 4.0338e-007 1.12351e-006 -1.21733e-006 -0.3601 -0.878 4.2331 2.0169e-007 5.61755e-007 -6.08665e-007 -1.8127 -1.216 2.2227 2.0169e-007 5.61755e-007 -6.08665e-007 -0.9571 1.114 1.7695 -3.18055e-015 3.18055e-015 -3.18055e-015 -4.1246 0.487 4.1451 4.0338e-007 1.12351e-006 -1.21733e-006 -3.4052 -1.454 2.7682 2.0169e-007 5.61755e-007 -6.08665e-007 -1.4531 -1.795 1.2713 2.0169e-007 5.61755e-007 -6.08665e-007 -5.6954 0.21 2.1184 4.0338e-007 1.12351e-006 -1.21733e-006 -3.9766 -1.54 2.3863 2.0169e-007 5.61755e-007 -6.08665e-007 -1.4042 -1.926 1.125 2.0169e-007 5.61755e-007 -6.08665e-007 -2.0956 0.66 -0.3894 -3.18055e-015 3.18055e-015 -3.18055e-015 -5.0395 -0.09 2.4971 4.0338e-007 1.12351e-006 -1.21733e-006 -3.7921 -1.552 1.4806 2.0169e-007 5.61755e-007 -6.08665e-007 -1.4655 -1.808 0.9609 2.0169e-007 5.61755e-007 -6.08665e-007 -4.9141 -1.269 0.3592 4.0338e-007 1.12351e-006 -1.21733e-006 -3.1477 -1.685 0.8462 2.0169e-007 5.61755e-007 -6.08665e-007 -0.8055 -1.585 0.7955 2.0169e-007 5.61755e-007 -6.08665e-007 8.367 -8.2066 0.5982 107.814 -43.6206 117.982 2.1923 -43.463 -0.4932 29.3173 77.8558 -16.5977 0.7333 -45.8593 -2.6451 -19.6378 18.8813 11.0433 -8.367 -8.2066 0.5982 -24.8954 -16.3102 -10.5041 -2.1923 -43.463 -0.4931 -48.8286 82.909 40.5768 -0.7333 -45.8593 -2.6451 4.60723 42.6916 -0.627682 
4.21054 47.8586 -15.5322 -9.29611e-015 -17.9965 180 0 -1.186 -1.5018 -0.239847 6.7824 -0.16081 0 9.964 0.2134 -0.465313 13.5653 -0.295938 0 13.134 -3.2573 -0.465313 13.5653 -0.295937 0 20.686 -1.6905 -1.38739e-005 -1.71381 -4.22394e-007 -1.77636e-015 7.238 -0.1237 5.8219e-007 -1.93023 -6.89779e-008 1.7069 20.075 5.0056 9.46465 -10.7101 6.32743 13.6458 -0.047 -4.849 -73.9624 6.25859 -17.4938 28.3255 -0.9759 2.2888 -16.2313 11.4823 -39.9331 22.1583 -0.53 10.8316 0.301285 1.27927 -7.17736 0.786 0.112 2.5817 -7.95139e-016 3.18055e-015 -3.18055e-015 0.3601 -0.878 4.2331 -7.95139e-016 6.36111e-015 -3.18055e-015 1.8127 -1.216 2.2227 3.53113e-031 6.36111e-015 -3.18055e-015 0.9571 1.114 1.7695 -7.95139e-016 3.18055e-015 -3.18055e-015 4.1246 0.487 4.1451 -2.38542e-015 6.36111e-015 -3.18055e-015 3.4052 -1.454 2.7682 3.53113e-031 6.36111e-015 -3.18055e-015 1.4531 -1.795 1.2713 -7.95139e-016 3.18055e-015 -3.18055e-015 5.6954 0.21 2.1184 -2.38542e-015 6.36111e-015 -3.18055e-015 3.9766 -1.54 2.3863 3.53113e-031 6.36111e-015 -3.18055e-015 1.4042 -1.926 1.125 -7.95139e-016 3.18055e-015 -3.18055e-015 2.0956 0.66 -0.3894 -7.95139e-016 3.18055e-015 -3.18055e-015 5.0395 -0.09 2.4971 -2.38542e-015 6.36111e-015 -3.18055e-015 3.7921 -1.552 1.4806 3.53113e-031 6.36111e-015 -3.18055e-015 1.4655 -1.808 0.9609 -7.95139e-016 3.18055e-015 -3.18055e-015 4.9141 -1.269 0.3591 -2.38542e-015 6.36111e-015 -3.18055e-015 3.1477 -1.685 0.8462 3.53113e-031 6.36111e-015 -3.18055e-015 0.8055 -1.585 0.7955 -7.95139e-016 3.18055e-015 -3.18055e-015 -1.7069 20.075 5.0056 -1.0273 -13.7221 4.44357 -13.6458 -0.047 -4.849 68.3048 3.11946 3.05311 -28.3255 -0.9759 2.2888 14.304 15.6198 48.423 -22.1583 -0.53 10.8316 -5.18787 0.784208 2.71136 -0.786 0.112 2.5817 1.99861e-007 5.6281e-007 -6.08199e-007 -0.3601 -0.878 4.2331 1.99861e-007 5.6281e-007 -6.08199e-007 -1.8127 -1.216 2.2227 1.99861e-007 5.6281e-007 -6.08199e-007 -0.9571 1.114 1.7695 -1.59028e-015 -3.18055e-015 3.18055e-015 -4.1246 0.487 4.1451 1.99861e-007 5.6281e-007 -6.08199e-007 -3.4052 -1.454 2.7682 1.99861e-007 5.6281e-007 -6.08199e-007 -1.4531 -1.795 1.2713 1.99861e-007 5.6281e-007 -6.08199e-007 -5.6954 0.21 2.1184 1.99861e-007 5.6281e-007 -6.08199e-007 -3.9766 -1.54 2.3863 1.99861e-007 5.6281e-007 -6.08199e-007 -1.4042 -1.926 1.125 1.99861e-007 5.6281e-007 -6.08199e-007 -2.0956 0.66 -0.3894 -1.59028e-015 -3.18055e-015 3.18055e-015 -5.0395 -0.09 2.4971 1.99861e-007 5.6281e-007 -6.08199e-007 -3.7921 -1.552 1.4806 1.99861e-007 5.6281e-007 -6.08199e-007 -1.4655 -1.808 0.9609 1.99861e-007 5.6281e-007 -6.08199e-007 -4.9141 -1.269 0.3592 1.99861e-007 5.6281e-007 -6.08199e-007 -3.1477 -1.685 0.8462 1.99861e-007 5.6281e-007 -6.08199e-007 -0.8055 -1.585 0.7955 1.99861e-007 5.6281e-007 -6.08199e-007 8.367 -8.2066 0.5982 107.811 -43.8799 118.171 2.1923 -43.463 -0.4932 27.3262 77.2432 -14.6531 0.7333 -45.8593 -2.6451 -19.2971 19.3404 11.4188 -8.367 -8.2066 0.5982 -24.9016 -16.9467 -10.8326 -2.1923 -43.463 -0.4931 -53.3452 83.3191 44.6913 -0.7333 -45.8593 -2.6451 4.49951 42.6289 -0.97762 
